<?xml version="1.0" standalone="no"?>
<!DOCTYPE svg PUBLIC "-//W3C//DTD SVG 20010904//EN"
 "http://www.w3.org/TR/2001/REC-SVG-20010904/DTD/svg10.dtd">
<svg version="1.0" xmlns="http://www.w3.org/2000/svg"
 width="948.000000pt" height="898.000000pt" viewBox="0 0 948.000000 898.000000"
 preserveAspectRatio="xMidYMid meet">

<g transform="translate(0.000000,898.000000) scale(0.100000,-0.100000)"
fill="#000000" stroke="none">
<path d="M0 4490 l0 -4490 4740 0 4740 0 0 4490 0 4490 -4740 0 -4740 0 0
-4490z m2717 2980 c274 -37 482 -188 585 -425 74 -169 82 -375 22 -554 -22
-67 -64 -131 -85 -131 -3 0 -51 -44 -105 -97 -86 -85 -113 -105 -204 -151
-125 -63 -167 -73 -326 -79 -99 -4 -136 -1 -209 16 -167 40 -292 122 -400 262
-11 14 -39 38 -63 53 -23 14 -42 32 -42 38 0 6 -8 21 -19 32 -43 48 -76 219
-68 350 9 156 59 291 151 413 157 208 454 314 763 273z m3777 -1730 c347 -62
634 -227 837 -481 177 -222 285 -486 342 -834 20 -126 21 -165 24 -1363 3
-1011 2 -1232 -9 -1226 -7 4 -27 18 -44 31 l-31 23 -641 0 c-416 0 -643 -4
-647 -10 -3 -5 -13 -10 -21 -10 -11 0 -14 14 -12 68 1 37 -1 144 -5 237 -12
297 -26 1093 -28 1590 -3 592 -6 615 -123 745 -49 55 -101 89 -186 121 -57 21
-82 24 -195 24 -110 0 -141 -4 -200 -23 -79 -27 -177 -92 -246 -165 -64 -67
-124 -188 -123 -247 4 -237 2 -2299 -3 -2319 -8 -36 -22 -42 -54 -25 -23 12
-132 14 -659 14 -407 0 -638 -4 -650 -10 -46 -25 -45 -74 -52 1835 -4 990 -10
1837 -13 1883 l-7 82 728 0 727 0 -8 -119 c-8 -135 -2 -146 48 -108 240 181
489 280 774 307 124 12 349 2 477 -20z m-3191 -132 c-2 -40 -5 -599 -7 -1243
-4 -1016 -13 -1595 -30 -1955 -3 -52 -8 -195 -12 -317 -7 -209 -8 -222 -25
-213 -11 6 -267 10 -649 10 l-632 0 -31 -22 c-18 -12 -35 -26 -38 -31 -14 -19
-19 434 -25 2101 l-7 1742 729 0 729 0 -2 -72z"/>
</g>
</svg>
